<svg xmlns="http://www.w3.org/2000/svg" width="6692" height="392" viewBox="0 0 6692 392">
  <defs>
    <style>
      .cls-1 {
        fill-rule: evenodd;
      }
    </style>
  </defs>
  <path id="BabyDaTa_s_Space_HUB_" data-name="BabyDaTa’s Space HUB™" class="cls-1" d="M53.957,289.628c9.9,2.1,28.2,3.6,51,3.6,33.6,0,59.1-4.8,76.2-16.2,15.9-10.5,27.6-26.4,27.6-48,0-22.2-12.3-38.1-31.8-44.1v-0.9c21.9-6.3,40.8-22.5,40.8-48,0-17.1-9.9-30-23.4-36.9-13.5-8.1-29.1-10.8-50.1-10.8a294.8,294.8,0,0,0-53.1,4.8Zm74.4-166.2c3.3-.9,9.3-1.5,16.8-1.5,16.5,0,28.5,6.3,28.5,21,0,17.1-16.2,27.3-39.9,27.3h-14.4Zm-15.6,78.3h13.5c20.1,0,36.9,6,36.9,26.1,0,22.5-21.3,31.8-44.7,31.8a136.724,136.724,0,0,1-16.5-.9Zm249.6,90.3c-0.6-18.3,2.1-47.1,5.7-66l15.6-76.8c-12.3-3.9-31.2-7.2-48.6-7.2-72.3,0-105,52.8-105,102.3,0,30.6,18,51,44.4,51,17.1,0,35.7-8.1,49.2-32.4h0.9c-0.9,10.5-1.8,20.4-2.1,29.1h39.9Zm-34.2-82.2c-6.6,36-22.5,50.7-35.4,50.7-12,0-17.7-9.9-17.7-24.3,0-27.3,20.4-61.5,48.3-61.5a66.893,66.893,0,0,1,11.7,1.2Zm104.4-130.8-29.7,148.5c-1.8,8.7-3.3,17.7-3.3,26.7,0,26.1,17.4,41.1,52.2,41.1,66,0,97.2-54.6,97.2-102.3,0-26.1-13.8-51-44.4-51a58.9,58.9,0,0,0-45.3,20.7h-0.6l17.4-83.7h-43.5Zm15.9,139.2c5.1-25.5,20.4-41.4,36-41.4,13.2,0,19.2,11.1,19.2,25.2,0,25.8-18,60.6-42.9,60.6-9.9,0-16.2-5.7-16.5-16.2-0.3-6.3.9-11.4,1.5-16.2Zm118.5-72.9,29.1,132.9c0.6,3.3.6,5.1-.9,7.2-5.4,9.9-13.8,18.6-23.7,25.5-8.4,6-18,9.6-24.9,11.7l9.6,36.9c9.6-1.5,30-8.7,47.1-24.9,19.5-18.3,36.9-45,56.4-84l52.5-105.3h-45.6l-26.7,64.5c-6.3,15.9-9.6,25.5-12.9,34.2h-0.6c-1.2-9.3-2.7-19.8-4.8-34.8l-9-63.9h-45.6Zm142.5,144.3c9.9,1.8,30.9,3.6,55.2,3.6,43.8,0,73.5-8.1,96.9-26.7,25.2-20.1,41.7-54,41.7-93-0.3-29.7-10.5-49.8-26.7-63.3-17.1-14.7-42.3-21.9-73.8-21.9a328.514,328.514,0,0,0-55.8,4.5Zm75-165.3c4.5-.9,10.8-1.2,18.3-1.2,35.7,0,53.4,18.9,53.4,50.7,0,24.3-7.2,45.3-21,60.9-13.2,15.3-33.9,23.7-57.3,23.7a113.053,113.053,0,0,1-18.9-1.2Zm264.9,167.7c-0.6-18.3,2.1-47.1,5.7-66l15.6-76.8c-12.3-3.9-31.2-7.2-48.6-7.2-72.3,0-105,52.8-105,102.3,0,30.6,18,51,44.4,51,17.1,0,35.7-8.1,49.2-32.4h0.9c-0.9,10.5-1.8,20.4-2.1,29.1h39.9Zm-34.2-82.2c-6.6,36-22.5,50.7-35.4,50.7-12,0-17.7-9.9-17.7-24.3,0-27.3,20.4-61.5,48.3-61.5a66.893,66.893,0,0,1,11.7,1.2Zm89.4,82.2h43.2l30.9-164.4h54l7.2-37.8h-150.3l-7.5,37.8h53.4Zm231.3,0c-0.6-18.3,2.1-47.1,5.7-66l15.6-76.8c-12.3-3.9-31.2-7.2-48.6-7.2-72.3,0-105,52.8-105,102.3,0,30.6,18,51,44.4,51,17.1,0,35.7-8.1,49.2-32.4h0.9c-0.9,10.5-1.8,20.4-2.1,29.1h39.9Zm-34.2-82.2c-6.6,36-22.5,50.7-35.4,50.7-12,0-17.7-9.9-17.7-24.3,0-27.3,20.4-61.5,48.3-61.5a66.893,66.893,0,0,1,11.7,1.2Zm107.4-120.6c-7.8,26.4-19.8,55.5-32.7,81l28.5-2.4c17.1-22.5,33.6-51.9,47.1-81.3Zm6,194.4c8.7,6.6,26.4,11.4,45,11.4,38.7,0,67.2-18,67.2-51.6,0-20.4-16.8-32.1-32.7-40.2-12-5.7-18-10.8-18-16.8,0-7.8,7.8-12.9,19.2-12.9a68.63,68.63,0,0,1,29.4,6.6l10.2-30.6c-7.2-4.2-20.7-7.5-37.8-7.5-37.8,0-64.5,20.1-64.5,50.4,0,18.3,14.1,30.6,31.2,39,13.5,6.6,18.3,11.7,18.3,18.9s-6.3,13.2-18.6,13.2c-14.1,0-30-6-38.4-10.2Zm181.2-3c9.6,7.2,29.7,14.4,57.9,14.4,45,0,82.2-23.1,82.2-68.1,0-24-15.6-40.5-40.2-53.4-17.1-9.6-29.4-16.8-29.4-28.5,0-11.1,10.5-21.3,30.6-21.3a80.5,80.5,0,0,1,37.8,9l13.5-36c-8.7-4.8-23.1-10.2-47.7-10.2-44.1,0-79.8,24.9-79.8,65.7,0,26.4,20.4,42,42,53.7,18.6,9.6,27.3,17.1,27.3,28.5,0,15.9-15.3,23.7-32.1,23.7a95.044,95.044,0,0,1-47.7-12.9Zm189,70.8,12-62.1h0.6c5.1,3,15.3,6,27.3,6,51,0,84.9-46.8,84.9-97.8,0-30-15.3-55.5-47.1-55.5-17.7,0-35.1,8.7-47.1,24.6h-0.6l2.7-21.3h-38.7c-1.8,15-5.4,39.3-8.7,56.7l-28.2,149.4h42.9Zm24-127.5c5.4-28.8,20.4-47.1,36.6-47.1,14.1,0,18.9,12.3,18.9,24,0,28.8-18,61.8-41.1,61.8-8.4,0-15-2.7-19.8-7.2Zm249.3,68.1c-0.6-18.3,2.1-47.1,5.7-66l15.6-76.8c-12.3-3.9-31.2-7.2-48.6-7.2-72.3,0-105,52.8-105,102.3,0,30.6,18,51,44.4,51,17.1,0,35.7-8.1,49.2-32.4h0.9c-0.9,10.5-1.8,20.4-2.1,29.1h39.9Zm-34.2-82.2c-6.6,36-22.5,50.7-35.4,50.7-12,0-17.7-9.9-17.7-24.3,0-27.3,20.4-61.5,48.3-61.5a66.893,66.893,0,0,1,11.7,1.2Zm172.5,44.7c-7.5,3-16.5,6-29.1,6-16.2,0-28.8-10.2-28.8-30.3,0-27.6,18.9-53.7,49.8-53.7a49.642,49.642,0,0,1,19.8,3.6l10.5-33c-6.3-2.7-17.1-5.1-29.7-5.1-55.8,0-95.7,40.8-95.7,93,0,38.1,25.5,60,61.8,60,17.4,0,32.4-3,41.7-7.5Zm139.2-2.1a92.242,92.242,0,0,1-41.1,9.3c-12.6,0-22.5-3.9-28.2-11.4-3-4.2-4.5-10.8-4.5-15,58.8,1.5,95.1-12,95.1-49.5,0-27.3-21.3-43.8-51-43.8-53.1,0-85.5,46.5-85.5,91.2,0,38.1,21.6,61.8,63.6,61.8,16.2,0,37.5-2.7,54.6-11.4Zm-19.2-66.3c0,13.2-16.8,18-50.4,17.7,3-13.8,14.4-30.3,34.5-30.3C2310.86,173.527,2316.86,178.627,2316.86,186.127Zm145.2-96.3-38.4,202.2h43.2l16.2-84.9h73.2l-15.9,84.9h43.2l38.4-202.2h-43.2l-15,78.9h-73.5l15-78.9h-43.2Zm198.9,0-21.3,112.8a158.376,158.376,0,0,0-3,28.2c0,43.2,25.5,64.5,67.2,64.5,54.9,0,81.9-29.4,93.6-90.6l21.9-114.9h-43.2l-22.2,116.7c-7.2,37.5-22.2,52.5-44.7,52.5-19.5,0-29.4-12.6-29.4-28.8a115.23,115.23,0,0,1,2.1-24l22.2-116.4h-43.2Zm159.3,199.8c9.9,2.1,28.2,3.6,51,3.6,33.6,0,59.1-4.8,76.2-16.2,15.9-10.5,27.6-26.4,27.6-48,0-22.2-12.3-38.1-31.8-44.1v-0.9c21.9-6.3,40.8-22.5,40.8-48,0-17.1-9.9-30-23.4-36.9-13.5-8.1-29.1-10.8-50.1-10.8a294.785,294.785,0,0,0-53.1,4.8Zm74.4-166.2c3.3-.9,9.3-1.5,16.8-1.5,16.5,0,28.5,6.3,28.5,21,0,17.1-16.2,27.3-39.9,27.3h-14.4Zm-15.6,78.3h13.5c20.1,0,36.9,6,36.9,26.1,0,22.5-21.3,31.8-44.7,31.8a136.724,136.724,0,0,1-16.5-.9Zm141-111.9v20.1h23.1v61.8h24.9v-61.8h23.7v-20.1h-71.7Zm183.6,81.9-4.5-81.9h-35.7l-6,20.1c-2.1,8.1-3.9,16.2-5.7,26.4h-0.6c-2.1-13.5-3.3-20.1-4.8-26.4l-5.4-20.1h-38.4l-5.1,81.9h23.4l1.8-36c0.6-9.3.6-20.7,0.9-31.8h1.2c2.1,10.8,3.9,23.7,5.4,31.5l7.2,34.8h23.7l8.4-34.5c2.1-9,4.8-20.7,7.2-31.8h1.2c0.3,12.6,0,22.8.3,31.8l1.5,36h24Z"/>
</svg>
